HIERARCHY
ROOT hip
{
	OFFSET 0.000000 0.000000 0.000000
	CHANNELS 6 Xposition Yposition Zposition Zrotation Yrotation Xrotation 
	JOINT lhipjoint
	{
		OFFSET 0.000000 0.000000 0.000000
		CHANNELS 3 Zrotation Yrotation Xrotation
		JOINT lfemur
		{
			OFFSET 1.363060 -1.794630 0.839290
			CHANNELS 3 Zrotation Yrotation Xrotation
			JOINT ltibia
			{
				OFFSET 2.448110 -6.726130 0.000000
				CHANNELS 3 Zrotation Yrotation Xrotation
				JOINT lfoot
				{
					OFFSET 2.562200 -7.039590 0.000000
					CHANNELS 3 Zrotation Yrotation Xrotation
					JOINT ltoes
					{
						OFFSET 0.157640 -0.433110 2.322550
						CHANNELS 3 Zrotation Yrotation Xrotation
						End Site
						{
							OFFSET 0.000000 0.000000 0.000000
						}
					}
				}
			}
		}
	}
	JOINT rhipjoint
	{
		OFFSET 0.000000 0.000000 0.000000
		CHANNELS 3 Zrotation Yrotation Xrotation
		JOINT rfemur
		{
			OFFSET -1.305520 -1.794630 0.839290
			CHANNELS 3 Zrotation Yrotation Xrotation
			JOINT rtibia
			{
				OFFSET -2.542530 -6.985550 0.000000
				CHANNELS 3 Zrotation Yrotation Xrotation
				JOINT rfoot
				{
					OFFSET -2.568260 -7.056230 0.000000
					CHANNELS 3 Zrotation Yrotation Xrotation
					JOINT rtoes
					{
						OFFSET -0.164730 -0.452590 2.363150
						CHANNELS 3 Zrotation Yrotation Xrotation
						End Site
						{
							OFFSET 0.000000 0.000000 0.000000
						}
					}
				}
			}
		}
	}
	JOINT lowerback
	{
		OFFSET 0.000000 0.000000 0.000000
		CHANNELS 3 Zrotation Yrotation Xrotation
		JOINT upperback
		{
			OFFSET 0.028270 2.035590 -0.193380
			CHANNELS 3 Zrotation Yrotation Xrotation
			JOINT thorax
			{
				OFFSET 0.056720 2.048850 -0.042750
				CHANNELS 3 Zrotation Yrotation Xrotation
				JOINT lowerneck
				{
					OFFSET 0.000000 0.000000 0.000000
					CHANNELS 3 Zrotation Yrotation Xrotation
					JOINT upperneck
					{
						OFFSET -0.054170 1.746240 0.172020
						CHANNELS 3 Zrotation Yrotation Xrotation
						JOINT head
						{
							OFFSET 0.104070 1.761360 -0.123970
							CHANNELS 3 Zrotation Yrotation Xrotation
							End Site
							{
								OFFSET 0.000000 0.000000 0.000000
							}
						}
					}
				}
				JOINT lclavicle
				{
					OFFSET 0.000000 0.000000 0.000000
					CHANNELS 3 Zrotation Yrotation Xrotation
					JOINT lhumerus
					{
						OFFSET 3.362410 1.200890 -0.311210
						CHANNELS 3 Zrotation Yrotation Xrotation
						JOINT lradius
						{
							OFFSET 4.983000 -0.000000 -0.000000
							CHANNELS 3 Zrotation Yrotation Xrotation
							JOINT lwrist
							{
								OFFSET 3.483560 -0.000000 -0.000000
								CHANNELS 3 Zrotation Yrotation Xrotation
								JOINT lhand
								{
									OFFSET 0.000000 0.000000 0.000000
									CHANNELS 3 Zrotation Yrotation Xrotation
									JOINT lfingers
									{
										OFFSET 0.715260 -0.000000 -0.000000
										CHANNELS 3 Zrotation Yrotation Xrotation
										End Site
										{
											OFFSET 0.000000 0.000000 0.000000
										}
									}
								}
								JOINT lthumb
								{
									OFFSET 0.000000 0.000000 0.000000
									CHANNELS 3 Zrotation Yrotation Xrotation
									End Site
									{
										OFFSET 0.000000 0.000000 0.000000
									}
								}
							}
						}
					}
				}
				JOINT rclavicle
				{
					OFFSET 0.000000 0.000000 0.000000
					CHANNELS 3 Zrotation Yrotation Xrotation
					JOINT rhumerus
					{
						OFFSET -3.136600 1.374050 -0.404650
						CHANNELS 3 Zrotation Yrotation Xrotation
						JOINT rradius
						{
							OFFSET -5.241900 -0.000000 -0.000000
							CHANNELS 3 Zrotation Yrotation Xrotation
							JOINT rwrist
							{
								OFFSET -3.444170 -0.000000 -0.000000
								CHANNELS 3 Zrotation Yrotation Xrotation
								JOINT rhand
								{
									OFFSET 0.000000 0.000000 0.000000
									CHANNELS 3 Zrotation Yrotation Xrotation
									JOINT rfingers
									{
										OFFSET -0.622530 -0.000000 -0.000000
										CHANNELS 3 Zrotation Yrotation Xrotation
										End Site
										{
											OFFSET 0.000000 0.000000 0.000000
										}
									}
								}
								JOINT rthumb
								{
									OFFSET 0.000000 0.000000 0.000000
									CHANNELS 3 Zrotation Yrotation Xrotation
									End Site
									{
										OFFSET 0.000000 0.000000 0.000000
									}
								}
							}
						}
					}
				}
			}
		}
	}
}
MOTION
Frames: 6
Frame Time: 0.008333
1.414977 17.436298 2.844375 -158.126476 -44.477085 147.101725 -5.615286 -5.783004 -3.903302 -4.469524 -7.291656 23.597311 0.677000 7.108284 11.491434 0.191016 -12.143427 4.205718 0.000000 -0.010200 -0.027900 11.442058 -0.435389 4.452821 -12.753353 6.509436 -97.226704 -32.334485 -10.198846 134.199718 -3.144416 14.883075 19.853658 -1.677700 8.159700 -23.200300 -3.128412 -5.714718 34.705847 2.689221 -12.646660 0.150231 0.702871 -8.465156 13.308944 -4.548859 -3.008331 -9.110141 23.868830 -10.899781 17.458418 5.489100 -4.785300 4.525700 -6.716636 -2.195757 7.972752 -144.865688 -87.307580 109.299024 131.457612 -50.423023 -95.555565 -1.407547 2.320669 -8.146183 40.113610 -15.243551 -15.335300 -7.125000 0.000000 0.000000 8.360100 6.541700 -7.434800 8.294577 1.139900 3.234150 71.906252 -11.494617 28.716790 -20.737987 39.626974 -5.423641 -0.019274 -1.526286 11.200619 -6.873311 9.601344 -1.385200 7.125000 0.000000 0.000000 13.979400 -18.959200 8.948400 
1.425726 17.420980 2.850825 -157.839769 -44.425247 146.688407 -5.644113 -5.802930 -3.918798 -4.412597 -7.663643 23.508062 0.708179 7.413077 12.348802 0.167200 -12.126615 3.678564 0.000000 -0.041800 -0.114800 11.451285 -0.381419 4.438096 -12.965439 6.388826 -98.023721 -32.340080 -10.199558 134.232357 -3.137724 14.920768 19.854981 -1.696800 8.203700 -23.334400 -3.050880 -5.660108 35.205029 2.712711 -12.647603 0.215231 0.768579 -8.520809 13.156813 -4.563084 -2.867247 -8.669691 24.275531 -10.822441 17.094072 5.626100 -4.801500 4.358600 -6.733439 -2.372464 7.552444 -149.161797 -87.332100 113.478955 131.537042 -50.441823 -95.610363 -1.412277 2.325359 -8.471646 39.969852 -15.205260 -15.237000 -7.125000 0.000000 0.000000 8.270300 6.616800 -7.341100 8.349019 1.172182 3.351668 71.765332 -11.818708 28.502404 -20.831848 39.684918 -5.473567 -0.018018 -1.519048 11.326189 -6.886059 9.586288 -1.385400 7.125000 0.000000 0.000000 13.970100 -18.981200 8.935000 
1.435221 17.398138 2.856826 -157.544849 -44.362944 146.292410 -5.671026 -5.820388 -3.935666 -4.365040 -8.087847 23.375336 0.749734 7.744949 13.288456 0.145478 -12.078031 3.093318 0.000200 -0.095100 -0.261300 11.455688 -0.338008 4.420423 -13.067275 6.269262 -98.662253 -32.334530 -10.214781 134.203371 -3.124397 14.909534 19.779315 -1.680900 8.167200 -23.223100 -2.915091 -5.606659 35.666251 2.730166 -12.637947 0.279382 0.781514 -8.551601 13.013657 -4.573090 -2.742282 -8.209675 24.687239 -10.771209 16.732249 5.768600 -4.835600 4.191400 -6.747159 -2.534144 7.168152 -153.251346 -87.207533 117.458563 131.612219 -50.444364 -95.663289 -1.420394 2.331167 -8.883015 39.793376 -15.243539 -15.182000 -7.125000 0.000000 0.000000 8.144200 6.605000 -7.228600 8.391442 1.199642 3.459862 71.686265 -12.136714 28.243195 -20.892177 39.721703 -5.512173 -0.018267 -1.516018 11.478975 -6.940821 9.573744 -1.394700 7.125000 0.000000 0.000000 13.931100 -18.994900 8.904100 
1.444000 17.376281 2.861843 -157.343755 -44.289051 145.953960 -5.686532 -5.824756 -3.949463 -4.377670 -8.462048 23.221922 0.799526 8.085301 14.253925 0.127586 -12.036700 2.563127 -0.000000 -0.024900 -0.068400 11.441322 -0.307552 4.401874 -13.207714 6.285668 -99.130060 -32.317026 -10.224189 134.144310 -3.116320 14.822080 19.723959 -1.639100 8.070000 -22.927000 -2.854779 -5.531281 36.118078 2.744704 -12.616418 0.342064 0.835823 -8.584877 12.888851 -4.650783 -2.593574 -7.711118 25.133131 -10.684614 16.331851 5.941400 -4.864100 4.001000 -6.766447 -2.688577 6.839246 -156.946374 -87.093390 121.027973 131.688682 -50.437896 -95.728736 -1.433278 2.331111 -9.294091 39.738100 -15.244393 -15.160900 -7.125000 0.000000 0.000000 8.104400 6.606700 -7.192300 8.436497 1.207641 3.554505 71.528436 -12.462728 28.073753 -20.945409 39.750262 -5.547347 -0.016655 -1.508768 11.627280 -6.971384 9.539576 -1.396100 7.125000 0.000000 0.000000 13.910100 -19.034900 8.877000 
1.451972 17.352095 2.866053 -157.132933 -44.149776 145.648308 -5.694630 -5.821169 -3.963115 -4.343970 -8.814333 23.007883 0.858283 8.445065 15.274894 0.104748 -12.042789 1.929864 0.000300 -0.106600 -0.292800 11.400721 -0.291803 4.379379 -13.240579 6.490966 -99.430684 -32.286035 -10.230480 134.032487 -3.109283 14.761012 19.676525 -1.633400 8.056700 -22.886500 -2.754013 -5.451554 36.488579 2.757039 -12.580658 0.409612 0.851151 -8.600448 12.814492 -4.695044 -2.450569 -7.256264 25.563601 -10.600995 15.942438 6.102200 -4.892300 3.818700 -6.784660 -2.823221 6.537102 -160.434108 -86.960614 124.423994 131.828125 -50.398203 -95.847762 -1.450080 2.327168 -9.780529 39.666772 -15.203951 -15.098700 -7.125000 0.000000 0.000000 8.064000 6.666400 -7.146200 8.475517 1.212319 3.644650 71.400981 -12.729933 27.865793 -20.925162 39.723176 -5.556402 -0.017087 -1.501007 11.856300 -7.027304 9.525381 -1.404900 7.125000 0.000000 0.000000 13.870200 -19.055200 8.843500 
1.460213 17.327908 2.870980 -156.962162 -44.023475 145.393895 -5.696318 -5.811281 -3.975449 -4.339385 -9.168020 22.763226 0.925294 8.798451 16.286073 0.086050 -12.037610 1.313634 0.000600 -0.153000 -0.420300 11.354174 -0.281784 4.358119 -13.313664 6.749662 -99.664951 -32.245892 -10.237147 133.902752 -3.120662 14.640968 19.811543 -1.576500 7.921800 -22.476700 -2.674563 -5.370161 36.837467 2.768167 -12.539852 0.471838 0.879900 -8.613750 12.746457 -4.747387 -2.325134 -6.837219 25.967908 -10.527821 15.565190 6.256400 -4.924000 3.647700 -6.802730 -2.944301 6.267113 -163.596486 -86.799776 127.500562 132.031106 -50.320951 -96.026761 -1.471596 2.320067 -10.266184 39.661356 -15.125856 -15.043100 -7.125000 0.000000 0.000000 8.075100 6.753400 -7.142600 8.515881 1.213690 3.723863 71.253201 -13.009724 27.671867 -20.924592 39.710677 -5.571251 -0.012770 -1.490720 12.086035 -7.012021 9.469804 -1.394900 7.125000 0.000000 0.000000 13.879800 -19.121900 8.828700 
